<svg width="12" height="12" viewBox="0 0 12 12" fill="none" xmlns="http://www.w3.org/2000/svg">
<path d="M12 6C12 9.31371 9.31371 12 6 12C2.68629 12 0 9.31371 0 6C0 2.68629 2.68629 0 6 0C9.31371 0 12 2.68629 12 6Z" fill="#77FFCC" fill-opacity="0.2"/>
<path fill-rule="evenodd" clip-rule="evenodd" d="M6 11C8.76142 11 11 8.76142 11 6C11 3.23858 8.76142 1 6 1C3.23858 1 1 3.23858 1 6C1 8.76142 3.23858 11 6 11ZM6 12C9.31371 12 12 9.31371 12 6C12 2.68629 9.31371 0 6 0C2.68629 0 0 2.68629 0 6C0 9.31371 2.68629 12 6 12Z" fill="#77FFCC"/>
<path fill-rule="evenodd" clip-rule="evenodd" d="M5.02963 6.97037C5.13804 8.71061 5.53138 10 6 10C6.46862 10 6.86196 8.71061 6.97037 6.97037C8.71061 6.86196 10 6.46862 10 6C10 5.53138 8.71061 5.13804 6.97037 5.02963C6.86196 3.28939 6.46862 2 6 2C5.53138 2 5.13804 3.28939 5.02963 5.02963C3.28939 5.13804 2 5.53138 2 6C2 6.46862 3.28939 6.86196 5.02963 6.97037Z" fill="#77FFCC"/>
</svg>
